<svg width="16" height="16" viewBox="0 0 16 16" fill="none" xmlns="http://www.w3.org/2000/svg">
<path d="M15.8045 14.862L11.2545 10.312C12.1359 9.22336 12.6665 7.84004 12.6665 6.3334C12.6665 2.84143 9.8252 0.00012207 6.33324 0.00012207C2.84128 0.00012207 0 2.8414 0 6.33336C0 9.82533 2.84131 12.6666 6.33327 12.6666C7.83991 12.6666 9.22324 12.136 10.3119 11.2547L14.8618 15.8046C14.9918 15.9346 15.1625 15.9999 15.3332 15.9999C15.5039 15.9999 15.6745 15.9346 15.8045 15.8046C16.0652 15.544 16.0652 15.1226 15.8045 14.862ZM6.33327 11.3333C3.57596 11.3333 1.33333 9.09068 1.33333 6.33336C1.33333 3.57605 3.57596 1.33342 6.33327 1.33342C9.09059 1.33342 11.3332 3.57605 11.3332 6.33336C11.3332 9.09068 9.09056 11.3333 6.33327 11.3333Z" fill="white"/>
</svg>
