<svg width="24" height="25" viewBox="0 0 24 25" fill="none" xmlns="http://www.w3.org/2000/svg">
<g clip-path="url(#clip0_1344_698)">
<path d="M7.73254 16.0158H7.73364C7.73455 16.0158 7.73547 16.0156 7.73638 16.0156H20.4844C20.7982 16.0156 21.0741 15.8074 21.1604 15.5057L23.9729 5.66192C24.0335 5.44971 23.991 5.22156 23.8583 5.04541C23.7253 4.86926 23.5175 4.76562 23.2969 4.76562H6.11096L5.60833 2.50372C5.53674 2.18201 5.25146 1.95312 4.92187 1.95312H0.703125C0.314758 1.95312 0 2.26788 0 2.65625C0 3.04462 0.314758 3.35937 0.703125 3.35937H4.35791C4.4469 3.76019 6.76318 14.1836 6.89648 14.7833C6.14923 15.1081 5.625 15.8532 5.625 16.7187C5.625 17.8818 6.57129 18.8281 7.73437 18.8281H20.4844C20.8727 18.8281 21.1875 18.5134 21.1875 18.125C21.1875 17.7366 20.8727 17.4219 20.4844 17.4219H7.73437C7.34674 17.4219 7.03125 17.1064 7.03125 16.7187C7.03125 16.3317 7.34564 16.0167 7.73254 16.0158ZM22.3647 6.17187L19.9539 14.6094H8.29834L6.42334 6.17187H22.3647Z" fill="white"/>
<path d="M7.03125 20.9375C7.03125 22.1006 7.97754 23.0469 9.14062 23.0469C10.3037 23.0469 11.25 22.1006 11.25 20.9375C11.25 19.7744 10.3037 18.8281 9.14062 18.8281C7.97754 18.8281 7.03125 19.7744 7.03125 20.9375ZM9.14062 20.2344C9.52826 20.2344 9.84375 20.5499 9.84375 20.9375C9.84375 21.3251 9.52826 21.6406 9.14062 21.6406C8.75299 21.6406 8.4375 21.3251 8.4375 20.9375C8.4375 20.5499 8.75299 20.2344 9.14062 20.2344Z" fill="white"/>
<path d="M16.9688 20.9375C16.9688 22.1006 17.915 23.0469 19.0781 23.0469C20.2412 23.0469 21.1875 22.1006 21.1875 20.9375C21.1875 19.7744 20.2412 18.8281 19.0781 18.8281C17.915 18.8281 16.9688 19.7744 16.9688 20.9375ZM19.0781 20.2344C19.4658 20.2344 19.7812 20.5499 19.7812 20.9375C19.7812 21.3251 19.4658 21.6406 19.0781 21.6406C18.6905 21.6406 18.375 21.3251 18.375 20.9375C18.375 20.5499 18.6905 20.2344 19.0781 20.2344Z" fill="white"/>
</g>
<defs>
<clipPath id="clip0_1344_698">
<rect width="24" height="24" fill="white" transform="translate(0 0.5)"/>
</clipPath>
</defs>
</svg>
