<svg width="20" height="20" viewBox="0 0 20 20" fill="none" xmlns="http://www.w3.org/2000/svg">
<path d="M10 6.25001C9.91795 6.24992 9.83666 6.26606 9.76083 6.29748C9.685 6.32891 9.61613 6.37501 9.55816 6.43313L3.30816 12.6831C3.06395 12.9274 3.06395 13.3228 3.30816 13.5669C3.55238 13.8109 3.94785 13.8111 4.19191 13.5669L10 7.75876L15.8082 13.5669C16.0524 13.8111 16.4479 13.8111 16.6919 13.5669C16.936 13.3227 16.9361 12.9272 16.6919 12.6831L10.4419 6.43313C10.384 6.37501 10.3151 6.32891 10.2392 6.29748C10.1634 6.26606 10.0821 6.24992 10 6.25001Z" fill="#222222"/>
</svg>
