<svg width="16" height="16" viewBox="0 0 16 16" fill="none" xmlns="http://www.w3.org/2000/svg">
<g clip-path="url(#clip0_21_1303)">
<path d="M9.46602 8.01369L15.6963 1.78328C16.1018 1.37801 16.1018 0.722724 15.6963 0.317502C15.2911 -0.0877677 14.6358 -0.0877677 14.2306 0.317502L8.0001 6.54787L1.76987 0.317502C1.36441 -0.0877677 0.709368 -0.0877677 0.304098 0.317502C-0.101366 0.722772 -0.101366 1.37801 0.304098 1.78328L6.53427 8.01369L0.304147 14.2441C-0.101317 14.6493 -0.101317 15.3046 0.304147 15.7098C0.400279 15.8062 0.514513 15.8827 0.640285 15.9348C0.766058 15.9869 0.90089 16.0137 1.03703 16.0135C1.30235 16.0135 1.56777 15.912 1.76992 15.7098L8.0001 9.47947L14.2306 15.7098C14.3267 15.8062 14.4409 15.8827 14.5667 15.9348C14.6925 15.9869 14.8273 16.0137 14.9635 16.0135C15.2288 16.0135 15.4942 15.912 15.6963 15.7098C16.1018 15.3046 16.1018 14.6493 15.6963 14.2441L9.46602 8.01369Z" fill="white"/>
</g>
<defs>
<clipPath id="clip0_21_1303">
<rect width="16" height="16" fill="white"/>
</clipPath>
</defs>
</svg>
