<svg width="20" height="20" viewBox="0 0 20 20" fill="none" xmlns="http://www.w3.org/2000/svg">
<g clip-path="url(#clip0_928_2401)">
<path d="M19.018 14.9618L14.5106 12.2573C13.8452 11.858 12.986 12.0911 12.6115 12.7668L11.6973 14.4161C11.6445 14.5113 11.5241 14.5458 11.43 14.4916C9.07769 13.1351 6.87613 10.9362 5.51609 8.58281C5.46215 8.48952 5.49558 8.36909 5.59051 8.31585L7.24211 7.38894C7.91492 7.0114 8.14219 6.15468 7.74535 5.49324L5.03871 0.981986C4.65746 0.346595 3.82519 0.130814 3.18336 0.501127C1.08508 1.7114 1.21094 1.62972 1.13511 1.70499C-1.42578 4.24644 0.519373 10.0531 5.23332 14.7672C9.94738 19.4814 15.7553 21.4249 18.2951 18.8656C18.3708 18.7892 18.2902 18.913 19.4989 16.8173C19.8691 16.1755 19.6534 15.3431 19.018 14.9618ZM18.4838 16.2318L17.4119 18.0903C15.4409 19.9575 10.3025 18.1793 6.06195 13.9386C1.85437 9.73081 0.0258179 4.57769 1.91031 2.5882L3.76883 1.5162C3.86054 1.46327 3.97941 1.49413 4.03386 1.58492L6.74051 6.09613C6.75394 6.11854 6.76275 6.14341 6.7664 6.16928C6.77006 6.19516 6.76849 6.2215 6.76178 6.24675C6.75508 6.27201 6.74338 6.29566 6.72737 6.31631C6.71136 6.33696 6.69137 6.35419 6.66859 6.36699L5.01699 7.2939C4.35211 7.66706 4.12039 8.50988 4.50144 9.16921C5.96258 11.6975 8.31172 14.0462 10.8446 15.5068C11.5073 15.8888 12.3518 15.6523 12.7221 14.9843L13.6363 13.335C13.649 13.312 13.6662 13.2919 13.6869 13.2758C13.7075 13.2596 13.7312 13.2478 13.7565 13.241C13.7818 13.2342 13.8083 13.2326 13.8342 13.2362C13.8602 13.2398 13.8851 13.2487 13.9076 13.2621L18.4151 15.9667C18.5059 16.0212 18.5367 16.14 18.4838 16.2318Z" fill="#DB0032"/>
<path d="M19.8283 2.51534L17.4846 0.171592C17.2558 -0.0571973 16.8848 -0.0571973 16.656 0.171592L12.9298 3.89792L11.645 2.613C11.2962 2.26421 10.6972 2.47788 10.6478 2.96851L10.0033 9.35522C9.96633 9.72077 10.2719 10.0308 10.6393 9.99757L17.0844 9.41163C17.5786 9.36667 17.7959 8.76413 17.4456 8.41378L16.1021 7.0703L19.8283 3.34397C20.0571 3.11519 20.0571 2.74417 19.8283 2.51534ZM14.8592 6.65597C14.6304 6.88476 14.6304 7.25577 14.8592 7.4846L15.7324 8.3578L11.2405 8.76616L11.6897 4.31491L12.5156 5.14085C12.7444 5.36964 13.1154 5.36964 13.3442 5.14085L17.0703 1.41452L18.5854 2.92968L14.8592 6.65597Z" fill="#DB0032"/>
</g>
<defs>
<clipPath id="clip0_928_2401">
<rect width="20" height="20" fill="white"/>
</clipPath>
</defs>
</svg>
