<svg width="20" height="20" viewBox="0 0 20 20" fill="none" xmlns="http://www.w3.org/2000/svg">
<path d="M10 13.75C9.91795 13.7501 9.83666 13.7339 9.76083 13.7025C9.685 13.6711 9.61613 13.625 9.55816 13.5669L3.30816 7.31687C3.06395 7.07265 3.06395 6.67718 3.30816 6.43312C3.55238 6.18906 3.94785 6.1889 4.19191 6.43312L10 12.2412L15.8082 6.43312C16.0524 6.1889 16.4479 6.1889 16.6919 6.43312C16.936 6.67734 16.9361 7.07281 16.6919 7.31687L10.4419 13.5669C10.384 13.625 10.3151 13.6711 10.2392 13.7025C10.1634 13.7339 10.0821 13.7501 10 13.75Z" fill="#222222"/>
</svg>
