<svg width="115" height="115" viewBox="0 0 115 115" fill="none" xmlns="http://www.w3.org/2000/svg">
<g clip-path="url(#clip0_131_891)">
<path d="M76.4681 55.2487L52.5887 37.8902C52.1597 37.5775 51.6525 37.3895 51.1233 37.3471C50.5941 37.3047 50.0635 37.4095 49.5901 37.6499C49.1168 37.8904 48.7192 38.257 48.4413 38.7094C48.1634 39.1618 48.0161 39.6822 48.0156 40.2131V74.9186C48.014 75.4504 48.1601 75.9721 48.4377 76.4256C48.7153 76.8792 49.1134 77.2467 49.5876 77.4872C50.0619 77.7277 50.5936 77.8317 51.1235 77.7876C51.6534 77.7436 52.1607 77.5532 52.5887 77.2377L76.4681 59.8945C76.8371 59.6299 77.1377 59.2811 77.3451 58.8772C77.5524 58.4732 77.6606 58.0257 77.6606 57.5716C77.6606 57.1176 77.5524 56.67 77.3451 56.2661C77.1377 55.8621 76.8371 55.5134 76.4681 55.2487Z" fill="#E4E4E4"/>
<path d="M57.5019 0.0078125C25.7392 0.0078125 0 25.7471 0 57.5097C0 89.2609 25.7392 114.993 57.5019 114.993C89.2569 114.993 115 89.2571 115 57.5097C115.004 25.7471 89.2569 0.0078125 57.5019 0.0078125ZM57.5019 105.399C31.0509 105.399 9.60534 83.9646 9.60534 57.5097C9.60534 31.0663 31.0509 9.6055 57.5019 9.6055C83.9491 9.6055 105.391 31.0625 105.391 57.5097C105.395 83.9646 83.9491 105.399 57.5019 105.399Z" fill="#E4E4E4"/>
</g>
<defs>
<clipPath id="clip0_131_891">
<rect width="115" height="115" fill="white"/>
</clipPath>
</defs>
</svg>
